<?xml version="1.0" encoding="utf-8"?>
<!-- Generator: Adobe Illustrator 22.0.1, SVG Export Plug-In . SVG Version: 6.00 Build 0)  -->
<svg version="1.1" id="Layer_1" xmlns="http://www.w3.org/2000/svg" xmlns:xlink="http://www.w3.org/1999/xlink" x="0px" y="0px"
	 viewBox="0 0 200 200" style="enable-background:new 0 0 200 200;" xml:space="preserve">
<style type="text/css">
	.st0{fill:#FFFFFF;}
</style>
<g>
	<g>
		<path class="st0" d="M100.5,16c-17.2-0.5-32.3,4.8-45.1,16.4C41.5,45,34.6,60.9,34.5,79.5C34.4,96,40,110.6,51.3,122.7
			c12.2,13.2,27.5,20.1,45.4,20.5c36.7,0.8,65.2-28.8,65.1-63.5C161.9,44.2,133.5,17,100.5,16z M120.4,46.8
			c-2.8,5.7-7.1,10-12.6,13.1c-0.6,0.4-0.9,0.5-0.5,1.4c0.6,1.2,0.2,2.4-0.5,3.5c-0.8,1.4-1.8,2.7-3,3.8c-6.7,6.6-12.3,13.9-17,22
			c-0.2,0.4-0.5,0.8-0.7,1.3c-0.1,0.1,0,0.2-0.1,0.5c3.6-3.7,7.3-7.1,11.4-9.8c3-1.9,6-3.5,9.6-3.8c1-0.1,2-0.1,3,0.2
			c3.3,0.7,4.9,3.5,4.4,7.3c-0.5,3.9-2.5,7.1-5.2,9.9c-5.9,6.1-13.2,9.7-21.3,11.7c-3.6,0.9-7.3,1.6-11,1.7c-1.3,0.1-2,0.7-2.5,1.7
			c-0.2,0.4-0.5,0.9-0.5,1.4c-0.2,2-1.4,3.1-3.1,3.9c-1.1,0.5-2.1,1-3.3,1.4c-0.4,0.2-0.8,0.5-1.1,0.2c-0.3-0.4,0-0.8,0.2-1.1
			c1.5-2.6,3-5.2,4.5-7.6c0.2-0.3,0.3-0.5,0.5-0.8c-0.9-0.5-1.7-1.1-2.6-1.7c-0.7-0.5-0.2-0.9,0-1.4c0.3-0.7,0.6-0.2,0.9,0
			c2.6,1.5,2.6,1.5,4.1-1.1c7.8-13.3,15-26.8,22.8-40c3.9-6.5,8-12.9,13.1-18.6c2-2.3,4.5-4.2,7-6c0.8-0.5,1.6-1,2.6-1.2
			c1.7-0.5,2.8,0.4,2.8,2.1C122.3,43,121.3,44.9,120.4,46.8z"/>
	</g>
	<g>
		<path class="st0" d="M77.1,107.4c2.6-0.2,4.9-0.7,7.3-1.2c7.8-1.8,14.6-5.3,19.8-11.6c2.3-2.9,4.2-6,4.5-9.8c0.2-2-0.8-3-2.8-3
			c-0.8,0-1.6,0.2-2.3,0.5c-2.4,0.9-4.6,2.2-6.7,3.7c-6.7,4.7-12.2,10.8-17,17.3C78.9,104.7,77.9,105.9,77.1,107.4z"/>
	</g>
	<g>
		<path class="st0" d="M117.9,42.6c-5.2,5.2-9.8,10.8-13.9,16.9C110.3,55.3,115.5,50.1,117.9,42.6z"/>
	</g>
	<g>
		<path class="st0" d="M103.7,59.9c-2.3,3.3-4.3,6.7-6.2,10.3c1.9-1.8,3.7-3.6,5.4-5.2c1.1-1.1,2-2.3,0.9-3.9
			C103.7,60.8,103.7,60.4,103.7,59.9z"/>
	</g>
</g>
<g>
	<path class="st0" d="M69.3,167.1c0.6,0.9,0.9,1.9,0.9,3c0,2-0.6,3.5-1.9,4.6c-1.3,1.1-3.1,1.6-5.4,1.6h-6.3h-1.4v-21h7.2
		c2.4,0,4.2,0.5,5.5,1.4c1.3,0.9,1.9,2.4,1.9,4.3c0,1-0.3,1.9-0.8,2.6s-1.3,1.4-2.3,1.8C67.8,165.7,68.7,166.2,69.3,167.1z
		 M58.8,158.3v5.8h3.5c1.1,0,2-0.3,2.7-0.8c0.6-0.5,0.9-1.2,0.9-2.2c0-1-0.3-1.8-0.9-2.2c-0.6-0.5-1.5-0.7-2.8-0.7H58.8z
		 M65.5,172.4c0.6-0.6,0.9-1.3,0.9-2.3c0-2.2-1.1-3.3-3.4-3.3h-4.2v6.4h4C64,173.3,64.9,173,65.5,172.4z"/>
	<path class="st0" d="M81.2,160.4c0.3,0,0.4,0.1,0.6,0.1l0,3.4c-0.5-0.1-1-0.1-1.4-0.1c-1.6,0-2.7,0.6-3.2,1.8v10.6h-3.6v-15.6h3.4
		l0.1,1.8c0.4-0.7,0.9-1.2,1.5-1.5c0.6-0.4,1.3-0.5,2-0.5C80.7,160.4,80.9,160.4,81.2,160.4z"/>
	<path class="st0" d="M96.9,160.7v15.6h-3.4l-0.1-1.5c-1,1.2-2.5,1.8-4.4,1.8c-1.6,0-2.9-0.5-3.8-1.4c-0.9-0.9-1.4-2.4-1.4-4.4
		v-10.1h3.6v10.1c0,1,0.2,1.8,0.7,2.2c0.4,0.4,1,0.7,1.8,0.7c1.7,0,2.8-0.6,3.4-1.8v-11.2H96.9z"/>
	<path class="st0" d="M112,161.8c0.9,0.9,1.3,2.4,1.3,4.5v10.1h-3.6v-10.1c0-1-0.2-1.8-0.7-2.2c-0.4-0.4-1.1-0.7-2.1-0.7
		c-0.7,0-1.3,0.2-1.8,0.5c-0.5,0.3-1,0.8-1.3,1.4v11.1h-3.6v-15.6h3.4l0.1,1.8c0.6-0.7,1.2-1.2,2-1.6c0.8-0.4,1.6-0.5,2.5-0.5
		C110,160.4,111.2,160.8,112,161.8z"/>
	<path class="st0" d="M129.7,171.1c0,1-0.3,1.9-0.9,2.8c-0.6,0.8-1.3,1.5-2.3,2c-1,0.5-2,0.7-3.2,0.7c-1.6,0-2.9-0.3-3.9-1
		c-1.1-0.7-1.9-1.6-2.4-2.8c-0.5-1.2-0.8-2.5-0.8-4v-0.5c0-1.5,0.3-2.8,0.8-4s1.3-2.1,2.4-2.8c1.1-0.7,2.4-1,3.9-1
		c1.2,0,2.3,0.2,3.3,0.7s1.7,1.2,2.2,2.1s0.8,1.9,0.9,3.1h-3.4c0-0.6-0.2-1.1-0.4-1.5c-0.3-0.5-0.6-0.8-1-1.1
		c-0.4-0.3-1-0.4-1.6-0.4c-1.3,0-2.2,0.5-2.7,1.4c-0.5,0.9-0.8,2.1-0.8,3.6v0.5c0,3.3,1.2,5,3.5,5c0.5,0,1-0.1,1.5-0.3
		c0.5-0.2,0.8-0.5,1.1-0.9s0.4-0.8,0.4-1.3H129.7z"/>
	<path class="st0" d="M145.3,166.3v10h-3.6v-10.1c0-1-0.2-1.8-0.7-2.2c-0.4-0.4-1.1-0.7-2.1-0.7c-0.7,0-1.3,0.2-1.8,0.5
		c-0.5,0.3-0.9,0.8-1.3,1.3v11.2h-3.6v-22.2h3.6v8.3c0.5-0.6,1.2-1.1,1.9-1.5c0.7-0.3,1.5-0.5,2.4-0.5
		C143.6,160.4,145.3,162.3,145.3,166.3z"/>
</g>
</svg>
