<?xml version="1.0" encoding="utf-8"?>
<!-- Generator: Adobe Illustrator 22.0.1, SVG Export Plug-In . SVG Version: 6.00 Build 0)  -->
<svg version="1.1" id="Layer_1" xmlns="http://www.w3.org/2000/svg" xmlns:xlink="http://www.w3.org/1999/xlink" x="0px" y="0px"
	 viewBox="0 0 200 200" style="enable-background:new 0 0 200 200;" xml:space="preserve">
<style type="text/css">
	.st0{fill:#FFFFFF;}
</style>
<g>
	<path class="st0" d="M43.3,165.3l-2.4,2.5v6.5h-3.7v-21h3.7v9.8l2-2.5l6-7.3h4.6l-7.8,9.3l8.2,11.7h-4.4L43.3,165.3z"/>
	<path class="st0" d="M68.5,174v0.2h-3.7c-0.2-0.3-0.3-0.8-0.4-1.5c-0.5,0.5-1.1,1-1.8,1.3c-0.7,0.3-1.5,0.5-2.3,0.5
		c-1,0-1.9-0.2-2.7-0.6c-0.8-0.4-1.4-1-1.9-1.7c-0.5-0.7-0.7-1.5-0.7-2.4c0-1.7,0.6-2.9,1.9-3.8c1.2-0.9,3-1.3,5.3-1.3h2.2v-1
		c0-0.8-0.2-1.5-0.7-1.9c-0.5-0.5-1.1-0.7-2-0.7c-0.5,0-1,0.1-1.4,0.3s-0.7,0.4-0.9,0.8s-0.3,0.7-0.3,1.1h-3.6
		c0-0.8,0.3-1.6,0.8-2.4c0.5-0.7,1.3-1.3,2.3-1.8c1-0.4,2.1-0.7,3.4-0.7c1.2,0,2.2,0.2,3.2,0.6s1.6,1,2.1,1.8s0.8,1.8,0.8,3v6.9
		C67.9,172.1,68.1,173.2,68.5,174z M63,171.2c0.6-0.4,1-0.8,1.3-1.3V167h-1.9c-1.3,0-2.2,0.2-2.8,0.7c-0.6,0.5-1,1.1-1,1.9
		c0,0.6,0.2,1.2,0.6,1.6c0.4,0.4,1,0.6,1.8,0.6C61.8,171.7,62.4,171.5,63,171.2z"/>
	<path class="st0" d="M76.7,167.6l-1.6,1.6v5.1h-3.6v-22.2h3.6v12.7l1.1-1.3l4.3-4.8h4.3l-5.8,6.5l6.4,9.1h-4.2L76.7,167.6z"/>
	<path class="st0" d="M100,174v0.2h-3.7c-0.2-0.3-0.3-0.8-0.4-1.5c-0.5,0.5-1.1,1-1.8,1.3c-0.7,0.3-1.5,0.5-2.3,0.5
		c-1,0-1.9-0.2-2.7-0.6c-0.8-0.4-1.4-1-1.9-1.7c-0.5-0.7-0.7-1.5-0.7-2.4c0-1.7,0.6-2.9,1.9-3.8c1.2-0.9,3-1.3,5.3-1.3h2.2v-1
		c0-0.8-0.2-1.5-0.7-1.9c-0.5-0.5-1.1-0.7-2-0.7c-0.5,0-1,0.1-1.4,0.3s-0.7,0.4-0.9,0.8s-0.3,0.7-0.3,1.1h-3.6
		c0-0.8,0.3-1.6,0.8-2.4c0.5-0.7,1.3-1.3,2.3-1.8c1-0.4,2.1-0.7,3.4-0.7c1.2,0,2.2,0.2,3.2,0.6s1.6,1,2.1,1.8s0.8,1.8,0.8,3v6.9
		C99.4,172.1,99.6,173.2,100,174z M94.5,171.2c0.6-0.4,1-0.8,1.3-1.3V167h-1.9c-1.3,0-2.2,0.2-2.8,0.7c-0.6,0.5-1,1.1-1,1.9
		c0,0.6,0.2,1.2,0.6,1.6c0.4,0.4,1,0.6,1.8,0.6C93.3,171.7,93.9,171.5,94.5,171.2z"/>
	<path class="st0" d="M103.2,162.2c0.6-1.2,1.4-2.1,2.5-2.8s2.4-1,3.9-1c1.5,0,2.8,0.3,3.9,1s1.9,1.6,2.5,2.8
		c0.6,1.2,0.9,2.6,0.9,4.1v0.3c0,1.5-0.3,2.9-0.9,4.1c-0.6,1.2-1.4,2.1-2.5,2.8c-1.1,0.7-2.4,1-3.9,1c-1.5,0-2.8-0.3-3.9-1
		s-1.9-1.6-2.5-2.8c-0.6-1.2-0.9-2.6-0.9-4.1v-0.3C102.3,164.8,102.6,163.4,103.2,162.2z M106.9,170.3c0.6,0.9,1.5,1.4,2.8,1.4
		c0.8,0,1.5-0.2,2.1-0.7c0.6-0.4,1-1.1,1.2-1.8c0.3-0.8,0.4-1.6,0.4-2.6v-0.3c0-0.9-0.1-1.8-0.4-2.6c-0.3-0.8-0.7-1.4-1.2-1.8
		c-0.6-0.5-1.3-0.7-2.1-0.7c-0.8,0-1.5,0.2-2.1,0.7c-0.5,0.5-1,1.1-1.2,1.8c-0.3,0.8-0.4,1.6-0.4,2.6v0.3
		C105.9,168.1,106.2,169.3,106.9,170.3z"/>
	<path class="st0" d="M127.1,171.5v2.8c-0.7,0.2-1.5,0.3-2.3,0.3c-1.3,0-2.3-0.4-3-1.1c-0.7-0.7-1.1-1.8-1.1-3.4v-8.8h-2.5v-2.7h2.5
		v-3.8h3.6v3.8h2.7v2.7h-2.7v8.6c0,0.7,0.1,1.1,0.4,1.3c0.3,0.2,0.7,0.4,1.2,0.4C126.2,171.6,126.7,171.6,127.1,171.5z"/>
	<path class="st0" d="M142.6,174v0.2h-3.7c-0.2-0.3-0.3-0.8-0.4-1.5c-0.5,0.5-1.1,1-1.8,1.3c-0.7,0.3-1.5,0.5-2.3,0.5
		c-1,0-1.9-0.2-2.7-0.6c-0.8-0.4-1.4-1-1.9-1.7c-0.5-0.7-0.7-1.5-0.7-2.4c0-1.7,0.6-2.9,1.9-3.8c1.2-0.9,3-1.3,5.3-1.3h2.2v-1
		c0-0.8-0.2-1.5-0.7-1.9c-0.5-0.5-1.1-0.7-2-0.7c-0.5,0-1,0.1-1.4,0.3s-0.7,0.4-0.9,0.8s-0.3,0.7-0.3,1.1h-3.6
		c0-0.8,0.3-1.6,0.8-2.4s1.3-1.3,2.3-1.8c1-0.4,2.1-0.7,3.4-0.7c1.2,0,2.2,0.2,3.2,0.6s1.6,1,2.1,1.8c0.5,0.8,0.8,1.8,0.8,3v6.9
		C142,172.1,142.2,173.2,142.6,174z M137.1,171.2c0.6-0.4,1-0.8,1.3-1.3V167h-1.9c-1.3,0-2.2,0.2-2.8,0.7c-0.6,0.5-1,1.1-1,1.9
		c0,0.6,0.2,1.2,0.6,1.6c0.4,0.4,1,0.6,1.8,0.6C135.9,171.7,136.6,171.5,137.1,171.2z"/>
	<path class="st0" d="M145.9,174.3v-22.2h3.6v22.2H145.9z"/>
	<path class="st0" d="M158.4,167.6l-1.6,1.6v5.1h-3.6v-22.2h3.6v12.7l1.1-1.3l4.3-4.8h4.3l-5.8,6.5l6.4,9.1h-4.2L158.4,167.6z"/>
</g>
<path class="st0" d="M98.5,14c-35.2,0-63.7,28.5-63.7,63.7s28.5,63.7,63.7,63.7s63.7-28.5,63.7-63.7S133.7,14,98.5,14z M98.1,101.3
	c-2.3,0-4.5-0.2-6.6-0.5c-3.9,2.7-13.1,8.9-13.7,9.3c-0.8,0.5-2,0.5-1.5-1.4c0.4-1.6,2.3-8.9,3.1-11.7c-10.2-5-16.9-13.9-16.9-24
	c0-15.5,16-28.2,35.6-28.2s35.6,12.7,35.6,28.2C133.8,88.6,117.8,101.3,98.1,101.3z"/>
<g>
	<path class="st0" d="M86.7,66.1c-2.2,0-9.5,0-9.5,0c-1.8,0-1.8,3.1,0,3h3.1c0,0,0,8.6,0,10.6c0,1.5,3.3,1.5,3.3,0V69.1
		c0,0,1.1,0,3.1,0C88.7,69.2,88.7,66.1,86.7,66.1z"/>
	<path class="st0" d="M94.1,67.1c-0.5-1-3.1-1.5-3.9,0c-0.7,1.7-3.5,9.8-4.5,11.9c-0.7,1.6,2.2,2.8,2.9,1.2l0.7-2.2H95
		c0,0-0.2,0.1,0.6,2.1c0.7,1.6,3.6,0.5,3-1.2C97.8,76.7,94.6,68.2,94.1,67.1z M90.4,75.1l1.9-5.5l1.7,5.5H90.4z"/>
	<path class="st0" d="M107.3,77.7c-1.5,0-4.2,0-4.2,0s0-8.1,0-10.1c0-1.9-3.5-1.9-3.4,0c0,2.7,0,11.6,0,11.6s-0.2,1.7,1.2,1.7
		c1.5,0,4.9,0,6.3,0C108.8,80.9,108.8,77.7,107.3,77.7z"/>
	<path class="st0" d="M120.1,78.6l-4.4-5.8c0,0,3-3.2,4.2-4.4c0.7-0.7-1.5-2.8-2.1-2.1c-0.7,0.7-5.3,5.3-5.3,5.3s0.1-3,0-4.6
		c0-1.3-3.2-1.2-3.2,0.1s0,12.1,0,12.8c0,1.2,3.2,1.2,3.2,0c0-1.5,0-4.3,0-4.3l1-0.7l4.1,5.7C118.3,81.7,121,79.7,120.1,78.6z"/>
</g>
</svg>
