<?xml version="1.0" encoding="utf-8"?>
<!-- Generator: Adobe Illustrator 22.0.1, SVG Export Plug-In . SVG Version: 6.00 Build 0)  -->
<svg version="1.1" id="Layer_1" xmlns="http://www.w3.org/2000/svg" xmlns:xlink="http://www.w3.org/1999/xlink" x="0px" y="0px"
	 viewBox="0 0 200 200" style="enable-background:new 0 0 200 200;" xml:space="preserve">
<style type="text/css">
	.st0{fill:#FFFFFF;}
</style>
<g>
	<path class="st0" d="M170.5,38.9c-1.7-6.3-6.6-11.2-12.9-12.9c-11.4-3-57-3-57-3s-45.6,0-57,3c-6.3,1.7-11.2,6.6-12.9,12.9
		c-3,11.4-3,35.1-3,35.1s0,23.7,3,35.1c1.7,6.3,6.6,11.2,12.9,12.9c11.4,3,57,3,57,3s45.6,0,57-3c6.3-1.7,11.2-6.6,12.9-12.9
		c3-11.4,3-35.1,3-35.1S173.6,50.3,170.5,38.9z M86,95.9V52.1L123.9,74L86,95.9z"/>
</g>
<g>
	<path class="st0" d="M57.8,143h4.1l-7,13.3v7.7h-3.8v-7.7l-7-13.3h4.1l4.8,9.9L57.8,143z"/>
	<path class="st0" d="M62.5,152c0.6-1.2,1.4-2.1,2.5-2.8c1.1-0.7,2.4-1,3.9-1c1.5,0,2.8,0.3,3.9,1c1.1,0.7,1.9,1.6,2.5,2.8
		c0.6,1.2,0.9,2.6,0.9,4.1v0.3c0,1.5-0.3,2.9-0.9,4.1c-0.6,1.2-1.4,2.1-2.5,2.8c-1.1,0.7-2.4,1-3.9,1c-1.5,0-2.8-0.3-3.9-1
		s-1.9-1.6-2.5-2.8c-0.6-1.2-0.9-2.6-0.9-4.1v-0.3C61.7,154.6,61.9,153.2,62.5,152z M66.2,160c0.6,0.9,1.5,1.4,2.8,1.4
		c0.8,0,1.5-0.2,2.1-0.7c0.6-0.4,1-1.1,1.2-1.8c0.3-0.8,0.4-1.6,0.4-2.6v-0.3c0-0.9-0.1-1.8-0.4-2.6c-0.3-0.8-0.7-1.4-1.2-1.8
		c-0.6-0.5-1.3-0.7-2.1-0.7c-0.8,0-1.5,0.2-2.1,0.7c-0.5,0.5-1,1.1-1.2,1.8c-0.3,0.8-0.4,1.6-0.4,2.6v0.3
		C65.2,157.9,65.6,159.1,66.2,160z"/>
	<path class="st0" d="M92.1,148.4V164h-3.4l-0.1-1.5c-1,1.2-2.5,1.8-4.4,1.8c-1.6,0-2.9-0.5-3.8-1.4c-0.9-0.9-1.4-2.4-1.4-4.4v-10.1
		h3.6v10.1c0,1,0.2,1.8,0.7,2.2c0.4,0.4,1,0.7,1.8,0.7c1.7,0,2.8-0.6,3.4-1.8v-11.2H92.1z"/>
	<path class="st0" d="M102.9,161.2v2.8c-0.7,0.2-1.5,0.3-2.3,0.3c-1.3,0-2.3-0.4-3-1.1c-0.7-0.7-1.1-1.8-1.1-3.4v-8.8h-2.5v-2.7h2.5
		v-3.8h3.6v3.8h2.7v2.7h-2.7v8.6c0,0.7,0.1,1.1,0.4,1.3c0.3,0.2,0.7,0.4,1.2,0.4C102.1,161.4,102.5,161.3,102.9,161.2z"/>
	<path class="st0" d="M118.4,148.4V164H115l-0.1-1.5c-1,1.2-2.5,1.8-4.4,1.8c-1.6,0-2.9-0.5-3.8-1.4c-0.9-0.9-1.4-2.4-1.4-4.4v-10.1
		h3.6v10.1c0,1,0.2,1.8,0.7,2.2c0.4,0.4,1,0.7,1.8,0.7c1.7,0,2.8-0.6,3.4-1.8v-11.2H118.4z"/>
	<path class="st0" d="M132.9,149.1c0.9,0.7,1.6,1.6,2.1,2.8c0.5,1.2,0.7,2.6,0.7,4.2v0.3c0,1.6-0.2,2.9-0.7,4.1s-1.2,2.1-2.1,2.8
		c-0.9,0.7-2,1-3.3,1c-1.8,0-3.2-0.7-4.3-2l-0.2,1.7h-3.3v-22.2h3.6v8c1-1.2,2.4-1.8,4.1-1.8C130.9,148.1,132,148.5,132.9,149.1z
		 M132.1,156.1c0-1.5-0.3-2.7-0.8-3.6c-0.5-0.9-1.4-1.4-2.6-1.4c-1.5,0-2.5,0.7-3.1,2v6.4c0.6,1.3,1.7,2,3.2,2
		c1.2,0,2.1-0.5,2.6-1.4c0.5-0.9,0.8-2.1,0.8-3.7V156.1z"/>
	<path class="st0" d="M151.8,157.4h-10.2c0.1,0.8,0.3,1.5,0.6,2.1s0.8,1.1,1.4,1.4c0.6,0.3,1.3,0.5,2.1,0.5c1.6,0,2.9-0.6,3.9-1.9
		l1.9,1.9c-0.6,0.8-1.4,1.5-2.4,2.1c-1,0.6-2.2,0.8-3.7,0.8c-1.5,0-2.9-0.3-4-1c-1.1-0.7-2-1.6-2.6-2.7c-0.6-1.1-0.9-2.4-0.9-3.9
		v-0.6c0-1.6,0.3-3,0.9-4.2c0.6-1.2,1.5-2.2,2.5-2.8c1.1-0.7,2.3-1,3.6-1c1.5,0,2.7,0.3,3.7,1c1,0.6,1.8,1.5,2.2,2.7
		c0.5,1.2,0.7,2.5,0.7,4V157.4z M148.2,154.5c0-1-0.3-1.8-0.8-2.5c-0.5-0.7-1.3-1-2.3-1c-0.9,0-1.7,0.3-2.3,1
		c-0.6,0.7-0.9,1.6-1.1,2.8h6.6V154.5z"/>
</g>
</svg>
