<?xml version="1.0" encoding="utf-8"?>
<!-- Generator: Adobe Illustrator 22.0.1, SVG Export Plug-In . SVG Version: 6.00 Build 0)  -->
<svg version="1.1" id="Layer_1" xmlns="http://www.w3.org/2000/svg" xmlns:xlink="http://www.w3.org/1999/xlink" x="0px" y="0px"
	 viewBox="0 0 153.4 34.3" style="enable-background:new 0 0 153.4 34.3;" xml:space="preserve">
<style type="text/css">
	.st0{display:none;enable-background:new    ;}
	.st1{font-family:'ArialMT';}
	.st2{font-size:45px;}
	.st3{fill:#FF712D;}
	.st4{fill:#FFFFFF;}
</style>
<text transform="matrix(1 0 0 1 59.317 40.1172)" class="st0 st1 st2">Stellar</text>
<path class="st3" d="M17.6,29h-5c-0.3,0-0.6-0.2-0.6-0.6V6.8c0-0.3,0.3-0.6,0.6-0.6h5c0.3,0,0.6,0.2,0.6,0.6v21.5
	C18.4,28.8,18.1,29,17.6,29z"/>
<path class="st3" d="M3.8,20.1v-5c0-0.3,0.2-0.6,0.6-0.6h21.7c0.3,0,0.6,0.3,0.6,0.6v5c0,0.3-0.2,0.6-0.6,0.6H4.5
	C4.1,20.8,3.8,20.5,3.8,20.1z"/>
<g>
	<path class="st4" d="M50.7,17.2c0.7-1,1.1-2.2,1.1-3.7c0-2.1-0.7-3.8-2.1-5c-1.3-1.1-3.4-1.7-5.8-1.7h-7.9v21.5h4.7v-7.9h3l4,7.9
		h4.7v-0.9l-4.3-8.1C49.3,18.9,50.1,18.1,50.7,17.2z M40.8,10.8h3.1c1.1,0,2,0.2,2.5,0.8c0.6,0.4,0.8,1.2,0.8,2.1s-0.2,1.6-0.8,2
		c-0.6,0.6-1.3,0.8-2.5,0.8h-3.1V10.8z"/>
	<polygon class="st4" points="61,19.2 69.3,19.2 69.3,15.3 61,15.3 61,10.8 70.6,10.8 70.6,6.8 56.2,6.8 56.2,28.4 70.7,28.4 
		70.7,24.4 61,24.4 	"/>
	<path class="st4" d="M87.3,7.7c-1.2-0.6-2.6-0.9-4.3-0.9h-8.4v21.5h4.7v-7.6h3.7c1.7,0,3-0.2,4.3-0.8c1.2-0.6,2.1-1.3,2.8-2.4
		c0.7-1,1-2.2,1-3.7c0-1.3-0.3-2.6-1-3.7C89.5,9.1,88.6,8.3,87.3,7.7z M83.1,16.8h-3.7v-6.1h3.7c0.8,0,1.5,0.1,1.9,0.4
		c0.4,0.3,0.8,0.7,1,1.1s0.3,1,0.3,1.6c0,0.9-0.2,1.6-0.8,2.1C85.1,16.5,84.2,16.8,83.1,16.8z"/>
	<polygon class="st4" points="99.9,6.8 95.2,6.8 95.2,28.4 109.2,28.4 109.2,24.4 99.9,24.4 	"/>
	<path class="st4" d="M124,21c0,1.2-0.3,2.2-0.9,2.8c-0.6,0.6-1.5,0.9-2.6,0.9s-2-0.3-2.6-0.9c-0.6-0.6-0.9-1.6-0.9-2.8V6.8h-4.7V21
		c0,1.6,0.3,3,1,4.2s1.7,2,2.9,2.6c1.2,0.6,2.7,0.9,4.2,0.9c1.6,0,2.9-0.3,4.2-0.9c1.2-0.6,2.2-1.5,3-2.6c0.7-1.1,1.1-2.6,1.1-4.2
		V6.8H124L124,21L124,21z"/>
	<path class="st4" d="M148.3,19.5c-0.6-0.9-1.3-1.7-2.4-2.2c-1-0.6-2.4-1.1-3.9-1.7c-1.5-0.4-2.5-0.9-3.1-1.3
		c-0.6-0.4-0.8-0.9-0.8-1.5c0-0.7,0.2-1.2,0.8-1.6c0.6-0.4,1.3-0.7,2.4-0.7c1.1,0,1.9,0.2,2.5,0.8s0.8,1.2,0.8,2v0.6h4.7v-0.6
		c0-1.2-0.3-2.4-1-3.5c-0.7-1-1.6-1.9-2.8-2.5c-1.2-0.6-2.6-0.9-4.2-0.9c-1.5,0-2.8,0.2-4,0.8s-2.1,1.2-2.8,2.2c-0.7,0.9-1,2-1,3.3
		c0,1.7,0.7,3.1,1.9,4.3c1.2,1,2.9,1.9,5.2,2.6c1.1,0.3,2,0.7,2.6,1s0.9,0.6,1.1,0.9s0.2,0.7,0.2,1.1c0,0.7-0.2,1.1-0.8,1.6
		c-0.6,0.4-1.3,0.7-2.4,0.7c-1.2,0-2.1-0.2-2.9-0.8c-0.7-0.4-1-1.2-1-2.4v-0.6h-4.7v0.4c0,1.5,0.4,2.8,1.2,3.9
		c0.8,1,1.9,1.9,3.3,2.4c1.3,0.6,2.7,0.8,4.2,0.8c1.6,0,2.9-0.2,4-0.7c1.2-0.4,2.1-1.2,2.8-2.1c0.7-0.9,1-2,1-3.3
		C149,21.4,148.7,20.4,148.3,19.5z"/>
</g>
</svg>
