<?xml version="1.0" encoding="utf-8"?>
<!-- Generator: Adobe Illustrator 22.0.1, SVG Export Plug-In . SVG Version: 6.00 Build 0)  -->
<svg version="1.1" id="Layer_1" xmlns="http://www.w3.org/2000/svg" xmlns:xlink="http://www.w3.org/1999/xlink" x="0px" y="0px"
	 viewBox="0 0 153.4 34.3" style="enable-background:new 0 0 153.4 34.3;" xml:space="preserve">
<style type="text/css">
	.st0{display:none;enable-background:new    ;}
	.st1{font-family:'ArialMT';}
	.st2{font-size:45px;}
	.st3{fill:#FFFFFF;}
	.st4{fill:#FF712D;}
</style>
<text transform="matrix(1 0 0 1 59.317 40.1172)" class="st0 st1 st2">Stellar</text>
<path class="st3" d="M50,27.1v0.3h-5.4l-3.4-6.7h-2.4v6.7h-5.1V7.4h8c1.5,0,2.9,0.3,4,0.7c1.1,0.5,2,1.1,2.6,2s1,2,1,3.3
	c0,1.5-0.4,2.7-0.9,3.6c-0.5,0.9-1.4,1.6-2.5,2.2L50,27.1z M38.9,16.4h2.9c0.8,0,1.4-0.3,1.8-0.6s0.6-1,0.6-1.8
	c0-0.8-0.3-1.4-0.6-1.8c-0.4-0.4-1-0.6-1.8-0.6h-2.9V16.4z"/>
<path class="st3" d="M57.2,11.6v3.6h7.3v3.9h-7.3v4.1h8.7v4.1H55.3h-3.2V7.4h5.1H66v4.1L57.2,11.6L57.2,11.6z"/>
<path class="st3" d="M79.7,8.4c1.2,0.5,2.1,1.4,2.7,2.4c0.6,1,1,2.3,1,3.6c0,1.3-0.4,2.4-1,3.4c-0.6,1-1.5,1.7-2.7,2.4
	c-1.2,0.5-2.5,0.8-4.2,0.8h-2.9v6.3h-5.1V7.4h8C77.1,7.4,78.5,7.8,79.7,8.4z M77.6,16.1c0.4-0.4,0.6-1,0.6-1.6c0-0.8-0.3-1.5-0.6-2
	c-0.5-0.5-1.1-0.8-2-0.8h-2.9v5.2h2.9C76.5,16.7,77.1,16.5,77.6,16.1z"/>
<path class="st3" d="M99,23.1v4.1H89h-3.2V7.4h5.1v15.7C90.9,23.1,99,23.1,99,23.1z"/>
<path class="st3" d="M122.3,17.8c-1-0.5-1.7-1.2-2.4-2c-0.6-0.8-1-1.8-1-3c0-1.1,0.4-2.2,1-3c0.6-0.9,1.6-1.5,2.8-1.9
	c1.2-0.5,2.4-0.7,4-0.7c1.4,0,2.7,0.3,3.8,0.7c1.1,0.5,2,1.2,2.6,2.2s1,2.1,1,3.4h-5c0-0.6-0.3-1.2-0.6-1.6s-1-0.5-1.8-0.5
	c-0.5,0-1,0.1-1.4,0.3c-0.4,0.2-0.7,0.4-0.9,0.6c-0.3,0.3-0.4,0.5-0.4,0.8c0,0.5,0.4,1,0.9,1.3c0.5,0.4,1.4,0.7,2.6,1.1
	c2.2,0.7,3.8,1.6,5,2.6c1.1,1,1.6,2.4,1.6,4c0,1.2-0.4,2.3-0.9,3c-0.6,0.9-1.4,1.5-2.5,1.9c-1.1,0.4-2.4,0.6-3.9,0.6
	c-1.4,0-2.8-0.3-4.1-0.7c-1.3-0.5-2.4-1.3-3.1-2.4c-0.8-1-1.2-2.4-1.2-3.9h5.1c0,0.7,0.2,1.3,0.4,1.7c0.3,0.4,0.6,0.7,1.1,0.9
	c0.5,0.2,1.1,0.3,1.8,0.3c0.8,0,1.4-0.2,1.7-0.5c0.4-0.4,0.5-0.7,0.5-1.1s-0.1-0.7-0.3-1c-0.2-0.3-0.5-0.5-1-0.8
	c-0.5-0.3-1.2-0.5-2.2-0.9C124.5,18.8,123.3,18.4,122.3,17.8z"/>
<path class="st4" d="M18.4,27.6h-5.2c-0.4,0-0.6-0.2-0.6-0.5V7.8c0-0.3,0.3-0.5,0.6-0.5h5.2c0.4,0,0.6,0.2,0.6,0.5V27
	C19.1,27.4,18.8,27.6,18.4,27.6z"/>
<path class="st4" d="M5.8,20v-5.2c0-0.4,0.2-0.6,0.5-0.6h19.2c0.3,0,0.5,0.3,0.5,0.6V20c0,0.4-0.2,0.6-0.5,0.6H6.3
	C6,20.7,5.8,20.4,5.8,20z"/>
<path class="st3" d="M111.3,7.5v12.8c0,1.1-0.3,1.9-0.7,2.4s-1.2,0.7-2.1,0.7s-1.6-0.3-2.1-0.7s-0.7-1.3-0.7-2.4V7.5h-5.1v12.8
	c0,1.5,0.4,2.8,1,3.9c0.6,1.1,1.6,1.9,2.8,2.4s2.5,0.9,4.2,0.9l0,0l0,0c1.6,0,3-0.4,4.2-0.9s2.2-1.4,2.8-2.4c0.6-1.1,1-2.4,1-3.9
	V7.5H111.3z"/>
<g>
	<path class="st3" d="M47.5-22.1c0.6-0.9,1-2,1-3.3c0-1.9-0.6-3.4-1.9-4.5c-1.2-1-3-1.5-5.2-1.5h-7v19.2h4.2v-7h2.7l3.6,7h4.2v-0.8
		l-3.9-7.3C46.2-20.7,46.9-21.3,47.5-22.1z M38.6-27.9h2.8c1,0,1.8,0.2,2.2,0.7c0.5,0.4,0.7,1.1,0.7,1.9c0,0.8-0.2,1.4-0.7,1.8
		c-0.5,0.5-1.2,0.7-2.2,0.7h-2.8V-27.9z"/>
	<polygon class="st3" points="56.6,-20.3 64,-20.3 64,-23.8 56.6,-23.8 56.6,-27.9 65.2,-27.9 65.2,-31.4 52.4,-31.4 52.4,-12.2 
		65.3,-12.2 65.3,-15.7 56.6,-15.7 	"/>
	<path class="st3" d="M80.1-30.6c-1.1-0.5-2.3-0.8-3.8-0.8h-7.5v19.2H73v-6.8h3.3c1.5,0,2.7-0.2,3.8-0.7c1.1-0.5,1.9-1.2,2.5-2.1
		c0.6-0.9,0.9-2,0.9-3.3c0-1.2-0.3-2.3-0.9-3.3C82-29.3,81.2-30.1,80.1-30.6z M76.3-22.5H73v-5.4h3.3c0.7,0,1.3,0.1,1.7,0.4
		c0.4,0.3,0.7,0.6,0.9,1c0.2,0.4,0.3,0.9,0.3,1.4c0,0.8-0.2,1.4-0.7,1.9C78.1-22.7,77.3-22.5,76.3-22.5z"/>
	<polygon class="st3" points="91.3,-31.4 87.1,-31.4 87.1,-12.2 99.6,-12.2 99.6,-15.7 91.3,-15.7 	"/>
	<path class="st3" d="M112.8-18.8c0,1.1-0.3,2-0.8,2.5c-0.5,0.5-1.3,0.8-2.3,0.8c-1,0-1.8-0.3-2.3-0.8c-0.5-0.5-0.8-1.4-0.8-2.5
		v-12.7h-4.2v12.7c0,1.4,0.3,2.7,0.9,3.7c0.6,1,1.5,1.8,2.6,2.3c1.1,0.5,2.4,0.8,3.7,0.8c1.4,0,2.6-0.3,3.7-0.8
		c1.1-0.5,2-1.3,2.7-2.3c0.6-1,1-2.3,1-3.7v-12.7h-4.2V-18.8z"/>
	<path class="st3" d="M134.4-20.2c-0.5-0.8-1.2-1.5-2.1-2c-0.9-0.5-2.1-1-3.5-1.5c-1.3-0.4-2.2-0.8-2.8-1.2
		c-0.5-0.4-0.7-0.8-0.7-1.3c0-0.6,0.2-1.1,0.7-1.4c0.5-0.4,1.2-0.6,2.1-0.6c1,0,1.7,0.2,2.2,0.7c0.5,0.5,0.7,1.1,0.7,1.8v0.5h4.2
		v-0.5c0-1.1-0.3-2.1-0.9-3.1c-0.6-0.9-1.4-1.7-2.5-2.2c-1.1-0.5-2.3-0.8-3.7-0.8c-1.3,0-2.5,0.2-3.6,0.7c-1.1,0.5-1.9,1.1-2.5,2
		c-0.6,0.8-0.9,1.8-0.9,2.9c0,1.5,0.6,2.8,1.7,3.8c1.1,0.9,2.6,1.7,4.6,2.3c1,0.3,1.8,0.6,2.3,0.9c0.5,0.3,0.8,0.5,1,0.8
		c0.2,0.3,0.2,0.6,0.2,1c0,0.6-0.2,1-0.7,1.4c-0.5,0.4-1.2,0.6-2.1,0.6c-1.1,0-1.9-0.2-2.6-0.7c-0.6-0.4-0.9-1.1-0.9-2.1v-0.5h-4.2
		v0.5c0,1.3,0.4,2.5,1.1,3.5c0.7,0.9,1.7,1.7,2.9,2.1c1.2,0.5,2.4,0.7,3.7,0.7c1.4,0,2.6-0.2,3.6-0.6c1.1-0.4,1.9-1.1,2.5-1.9
		c0.6-0.8,0.9-1.8,0.9-2.9C135.1-18.5,134.8-19.4,134.4-20.2z"/>
</g>
</svg>
